<svg width="154" height="45" viewBox="0 0 154 45" fill="none" xmlns="http://www.w3.org/2000/svg" class="logo"><g clip-path="url(#clip0_311_5882)"><path d="M140.35 26.5923H138.892C137.357 26.5923 136.596 26.0033 136.596 24.8144C136.595 24.5562 136.647 24.3006 136.75 24.0639C136.853 23.8272 137.005 23.6147 137.194 23.4401C137.374 23.2541 137.588 23.1062 137.826 23.005C138.063 22.9038 138.318 22.8515 138.576 22.8511C139.015 22.8557 139.439 23.0052 139.784 23.2765C139.956 23.3844 140.097 23.5339 140.196 23.7112C140.295 23.8884 140.348 24.0878 140.35 24.2909V26.5923ZM147.477 26.5923H146.095V17.7683H141.101L140.872 18.4227C139.897 17.8036 138.762 17.4851 137.608 17.5065C136.654 17.4791 135.705 17.66 134.828 18.0366C133.95 18.4134 133.165 18.9768 132.526 19.688C131.22 21.1445 130.529 23.0532 130.601 25.0107C130.58 25.9937 130.771 26.9695 131.162 27.8714C131.552 28.7731 132.133 29.5796 132.864 30.2353C133.612 30.9133 134.489 31.432 135.443 31.7601C136.397 32.0882 137.407 32.2188 138.413 32.1441H139.099L140.328 30.1372C140.328 31.2456 141.224 32.1441 142.329 32.1441H146.073L147.477 26.5923ZM131.493 26.5923H130.111V21.7603C130.111 19.099 128.772 17.7683 126.096 17.7683H122.94L121.787 20.266C121.787 18.8866 120.672 17.7683 119.296 17.7683H116.249L114.899 23.1456H116.249V28.5751C116.249 30.5462 117.842 32.1441 119.807 32.1441H121.787V23.3201C122.189 23.2041 122.6 23.1238 123.016 23.0801C124.104 23.0801 124.573 23.4619 124.573 24.1709V28.5424C124.573 30.5135 126.166 32.1114 128.131 32.1114H130.111L131.493 26.5923ZM116.259 26.5923H114.932V17.7683H109.219L107.837 23.1456H109.187V28.5751C109.187 30.5462 110.78 32.1441 112.746 32.1441H114.932L116.259 26.5923ZM116.303 11.6929H111.913C111.102 11.6929 110.394 12.2427 110.191 13.0299L109.274 16.5794H113.624C114.428 16.5794 115.132 16.0387 115.342 15.2603L116.303 11.6929ZM102.158 25.5016C102.153 25.9134 102.128 26.3248 102.082 26.7341H101.592C99.2959 26.8977 98.1534 26.2323 98.1534 24.7817C98.1424 24.5096 98.1881 24.2381 98.2871 23.9846C98.3866 23.7311 98.5373 23.5011 98.7301 23.3092C98.9268 23.1179 99.1607 22.9689 99.4169 22.8713C99.6734 22.7738 99.9469 22.7298 100.221 22.742C101.494 22.7093 102.125 23.691 102.125 25.5016H102.158ZM109.252 26.5923H107.87V11.6929H102.299L101.07 17.1465H102.158V18.0082C101.21 17.7331 100.227 17.6008 99.2414 17.6156C98.3197 17.6022 97.4058 17.7905 96.564 18.1672C95.7223 18.544 94.9722 19.1002 94.3668 19.797C93.086 21.1909 92.3953 23.029 92.4409 24.9235C92.4049 25.9675 92.5941 27.007 92.9961 27.9708C93.398 28.9347 94.0031 29.8002 94.7694 30.508C95.7113 31.5045 96.9936 32.1082 98.36 32.1987H101.08L102.082 29.7554C102.082 31.1048 103.172 32.1987 104.518 32.1987H107.827L109.252 26.5923ZM86.1843 26.5923H84.7697C83.2355 26.5923 82.4738 26.0033 82.4738 24.8144C82.4726 24.5562 82.5252 24.3006 82.6283 24.0639C82.7313 23.8272 82.8826 23.6147 83.0723 23.4401C83.2515 23.2541 83.4662 23.1062 83.7036 23.005C83.941 22.9038 84.1962 22.8515 84.4542 22.8511C84.8918 22.8597 85.3151 23.0088 85.6619 23.2765C85.8336 23.3844 85.9754 23.5339 86.0742 23.7112C86.1731 23.8884 86.2259 24.0878 86.2278 24.2909L86.1843 26.5923ZM93.3004 26.5923H91.9728V17.7683H86.9785L86.75 18.4227C85.7741 17.8054 84.6396 17.487 83.4858 17.5065C82.5312 17.4754 81.5813 17.6546 80.7033 18.0315C79.8253 18.4084 79.0406 18.9739 78.4043 19.688C77.0976 21.1445 76.407 23.0532 76.4784 25.0107C76.4575 25.9937 76.6489 26.9695 77.0396 27.8714C77.4302 28.7731 78.0109 29.5796 78.7416 30.2353C79.4958 30.9083 80.3785 31.4206 81.3362 31.7412C82.2938 32.0618 83.3065 32.184 84.3127 32.1005H84.9982L86.1843 30.1372C86.1843 31.2456 87.0802 32.1441 88.1855 32.1441H91.9293L93.3004 26.5923ZM77.3162 26.5923H75.9888V21.9349C76.0228 20.8809 75.6749 19.8502 75.0094 19.0335C74.6813 18.6215 74.2613 18.2923 73.7832 18.0726C73.3051 17.8528 72.7822 17.7486 72.2565 17.7683H68.8943L67.6104 20.5823C67.2948 19.8227 66.7888 19.1577 66.1414 18.6518C65.5204 18.1034 64.7272 17.7908 63.9 17.7683H60.4616L59.3408 20.4187V17.7683H53.8024L52.4531 22.9711H53.8024V28.5751C53.8024 30.5462 55.3957 32.1441 57.3613 32.1441H59.3408V23.2001C59.4257 23.1728 59.5132 23.1545 59.6019 23.1456C59.8551 23.0768 60.1135 23.0293 60.3745 23.0038C60.5789 23.0037 60.7817 23.0407 60.973 23.1128C61.1805 23.1875 61.3751 23.2942 61.5497 23.4292C61.7178 23.5513 61.8587 23.7074 61.9631 23.8873C62.0661 24.0427 62.1227 24.2243 62.1264 24.4108V28.5751C62.1264 30.5462 63.7197 32.1441 65.6852 32.1441H67.6865V23.2547C68.0243 23.1613 68.3706 23.1028 68.7202 23.0801C69.9062 23.0801 70.4938 23.5164 70.4938 24.3781V28.5751C70.4938 30.5462 72.0872 32.1441 74.0527 32.1441H76.0105L77.3162 26.5923Z" fill="#2F4DC4"></path><path d="M151.218 29.2342H150.836V28.5138H151.146C151.508 28.5138 151.587 28.6526 151.587 28.8707C151.593 28.9203 151.587 28.9705 151.57 29.0175C151.553 29.0645 151.526 29.1071 151.491 29.1421C151.455 29.1771 151.412 29.2036 151.365 29.2195C151.318 29.2354 151.268 29.2405 151.218 29.2342ZM152.451 30.7477C151.857 29.6638 151.884 29.7166 151.851 29.6638C151.993 29.5799 152.11 29.4586 152.189 29.3131C152.268 29.1675 152.306 29.0032 152.299 28.8376C152.299 28.2428 151.957 27.8727 151.152 27.8727H150.276C150.258 27.8727 150.24 27.8763 150.224 27.8834C150.207 27.8904 150.193 27.9007 150.18 27.9137C150.168 27.9267 150.158 27.942 150.152 27.9589C150.146 27.9757 150.143 27.9936 150.144 28.0115V30.8204C150.143 30.8383 150.146 30.8562 150.152 30.873C150.158 30.8898 150.168 30.9052 150.18 30.9181C150.193 30.9311 150.207 30.9415 150.224 30.9485C150.24 30.9556 150.258 30.9592 150.276 30.9592H150.711C150.729 30.9592 150.746 30.9556 150.763 30.9485C150.779 30.9415 150.794 30.9311 150.807 30.9181C150.819 30.9052 150.828 30.8898 150.835 30.873C150.841 30.8562 150.843 30.8383 150.843 30.8204V29.8753H151.205L151.739 30.8799C151.751 30.9014 151.768 30.9195 151.788 30.9322C151.809 30.945 151.833 30.952 151.857 30.9526H152.339C152.362 30.951 152.384 30.9436 152.404 30.931C152.423 30.9185 152.439 30.9012 152.45 30.8809C152.462 30.8604 152.467 30.8375 152.467 30.8143C152.468 30.791 152.462 30.7681 152.451 30.7477ZM151.212 31.673C150.767 31.673 150.333 31.5408 149.963 31.2932C149.594 31.0455 149.305 30.6935 149.135 30.2817C148.965 29.8699 148.921 29.4167 149.007 28.9796C149.094 28.5424 149.308 28.1408 149.623 27.8256C149.937 27.5104 150.337 27.2958 150.773 27.2088C151.209 27.1218 151.661 27.1665 152.072 27.3371C152.482 27.5076 152.833 27.7965 153.08 28.1671C153.327 28.5377 153.459 28.9735 153.459 29.4193C153.457 30.0164 153.22 30.5887 152.799 31.011C152.378 31.4332 151.807 31.6712 151.212 31.673ZM151.212 26.6235C150.66 26.6235 150.121 26.7875 149.663 27.0947C149.204 27.4019 148.847 27.8385 148.636 28.3494C148.425 28.8602 148.37 29.4223 148.477 29.9646C148.585 30.507 148.851 31.0051 149.241 31.3961C149.63 31.7871 150.127 32.0533 150.668 32.1612C151.209 32.2691 151.769 32.2137 152.278 32.0021C152.788 31.7905 153.223 31.4322 153.53 30.9725C153.836 30.5127 153.999 29.9722 153.999 29.4193C153.999 29.0521 153.927 28.6885 153.787 28.3494C153.647 28.0102 153.442 27.702 153.183 27.4424C152.924 27.1828 152.617 26.9768 152.278 26.8364C151.94 26.6959 151.578 26.6235 151.212 26.6235Z" fill="#2F4DC4"></path></g><g clip-path="url(#clip1_311_5882)"><path fill-rule="evenodd" clip-rule="evenodd" d="M39.0368 27.6409H37.2075V15.4573C37.2516 14.0381 36.7844 12.6503 35.8911 11.5466C35.442 10.9922 34.8699 10.55 34.2203 10.2551C33.5704 9.96016 32.8611 9.82067 32.1479 9.84767H27.6473L25.9021 13.6742C25.4802 12.6527 24.7996 11.7586 23.9272 11.0798C23.096 10.335 22.0273 9.90924 20.9115 9.87826H16.2654L14.7345 13.4752V9.87826H7.27922L5.45751 16.8501H7.27922V27.6014C7.27922 31.7271 10.6239 35.0718 14.7498 35.0718V17.1639C14.8654 17.1307 14.983 17.1051 15.1019 17.0874C15.446 16.9966 15.7966 16.9327 16.1505 16.896C16.428 16.8976 16.7029 16.9495 16.9619 17.0491C17.2375 17.1485 17.4958 17.2906 17.7273 17.47C17.9489 17.6419 18.1381 17.8518 18.2861 18.0899C18.4217 18.2973 18.4959 18.5386 18.5004 18.7863V27.6014C18.5004 31.7271 21.8451 35.0718 25.9711 35.0718V17.2404C26.4256 17.1132 26.8927 17.0362 27.364 17.0108C28.9714 17.0108 29.7676 17.5925 29.7676 18.7481V27.6396C29.7676 31.7443 33.0951 35.0718 37.1998 35.0718L39.0368 27.6409ZM9.82045 0.197266H44.5251V38.8294C44.521 40.3898 43.8997 41.8852 42.7969 42.9891C41.6941 44.0932 40.1995 44.7161 38.6388 44.7222H0V10.016C0.00606452 7.41379 1.04266 4.91989 2.88303 3.07982C4.72342 1.23975 7.21776 0.203329 9.82045 0.197266Z" fill="#2F4DC4"></path></g><defs><clipPath id="clip0_311_5882"><rect width="101.547" height="20.5216" fill="white" transform="translate(52.4531 11.6931)"></rect></clipPath><clipPath id="clip1_311_5882"><rect width="44.545" height="44.7711" fill="white"></rect></clipPath></defs></svg>